<svg width="32" height="33" viewBox="0 0 32 33" fill="none" xmlns="http://www.w3.org/2000/svg">
<path d="M11.5595 16.0563C12.5968 18.2379 14.3158 19.9983 16.4412 21.0555C16.5967 21.1313 16.7687 21.1641 16.9403 21.1508C17.1119 21.1374 17.2771 21.0783 17.4198 20.9793L20.5492 18.8325C20.6877 18.7376 20.8469 18.6797 21.0126 18.664C21.1782 18.6484 21.3451 18.6755 21.498 18.7429L27.3526 21.3241C27.5515 21.411 27.7175 21.5621 27.8257 21.7545C27.9339 21.9469 27.9783 22.1703 27.9524 22.391C27.7673 23.8806 27.0608 25.2498 25.9652 26.2421C24.8695 27.2344 23.4598 27.7819 22 27.782C17.4913 27.782 13.1673 25.9394 9.97919 22.6597C6.79107 19.38 5 14.9317 5 10.2934C5.00008 8.79172 5.53224 7.3415 6.49685 6.21435C7.46146 5.0872 8.79237 4.36039 10.2404 4.17003C10.4549 4.14332 10.672 4.18906 10.8591 4.30034C11.0461 4.41163 11.193 4.58244 11.2775 4.78704L13.7888 10.8152C13.8537 10.9711 13.8802 11.1411 13.8658 11.3101C13.8514 11.4791 13.7967 11.6418 13.7064 11.7837L11.6268 15.0525C11.5322 15.1996 11.4762 15.3694 11.4644 15.5453C11.4526 15.7212 11.4854 15.8973 11.5595 16.0563V16.0563Z" stroke="white" stroke-width="2" stroke-linecap="round" stroke-linejoin="round"/>
</svg>
